{"title":"COCOON-[1985][DvDrip]-Demonuk[NIKONRG]","uid":4343853,"size":734016841,"categoryP":"video","categoryS":"movies","magnet":"?xt=urn:btih:4e656141ea5537e174a3cca4e3dbad7f4b415cfc&amp;dn=COCOON-%5B1985%5D%5BDvDrip%5D-Demonuk%5BNIKONRG%5D&amp;tr=udp%3A%2F%2Ftracker.openbittorrent.com%3A80&amp;tr=udp%3A%2F%2Fopen.demonii.com%3A1337&amp;tr=udp%3A%2F%2Ftracker.coppersurfer.tk%3A6969&amp;tr=udp%3A%2F%2Fexodus.desync.com%3A6969","seeders":1,"leechers":0,"uploader":"demonuk","files":3,"time":1218760846,"description":"Cocoon-[1985][DvDrip]-Demonuk[NIKONRG]\n__________________\nMOVIE INFORMATION\n__________________\nTITLE.............:Cocoon\nDIRECTOR..........:Ron Howard\nYEAR..............: 1985\nRUNTIME...........:1h 52mn\nGENRE.............:Adventure | Comedy | Drama | Sci-Fi\nFORMAT.............:AVI\nFormat/Info.........:Audio Video Interleave\nFile size..........:700 MiB\nDuration..........:1h 33mn\nOveral bit rate....871 Kbps\nSOURCE............:PAL DVD\nSIZE..............:700mb\nIMDB..............: http://www.imdb.com/title/tt0088933/\nUSER RATING............: 6.6/10 (12,965 votes)\n__________________\nVIDEO INFORMATION\n__________________\nFormat: MPEG-4 Visual\nFormat profile: Streaming Video@L1\nFormat settings, BVOP: Yes\nFormat settings, QPel: No\nFormat settings, GMC: No warppoints\nFormat settings, Matrix: Custom\nCodec ID: XVID\nCodec ID/Hint: XviD\nDuration: 1h 52mn\nBit rate: 744 Kbps\nWidth: 608 pixels\nHeight: 336 pixels\nDisplay aspect ratio: 16/9\nFrame rate: 25.000 fps\nResolution: 8 bits\nColorimetry: 4:2:0\nScan type: Progressive\nBits/(Pixel*Frame): 0.146\nStream size: 598 MiB (85%)\n\n__________________\nAUDIO INFORMATION\n__________________\nFormat: MPEG Audio\nFormat version: Version 1\nFormat profile: Layer 3\nCodec ID: 55\nCodec ID/Hint: MP3\nDuration: 1h 52mn\nBit rate mode: Variable\nBit rate: 114 Kbps\nMinimum bit rate: 128 Kbps\nChannel(s): 2 channels\nSampling rate: 48.0 KHz\nResolution: 16 bits\nStream size: 91.6 MiB (13%)\nWriting library: LAME3.97 \nEncoding settings: ABR\n\n__________________\nMAIN CAST\n__________________\nDon Ameche\t... Arthur Selwyn\nWilford Brimley\t... Benjamin Luckett\nHume Cronyn\t... Joseph Finley\nBrian Dennehy\t... Walter\nJack Gilford\t... Bernard Lefkowitz\nSteve Guttenberg\t... Jack Bonner\nMaureen Stapleton\t... Marilyn Luckett\n\n\n__________________\nPLOT OUTLINE\n__________________\nA group of aliens return to earth to take back some cocoons of their people they left behind\nfrom an earlier trip. The cocoons are resting at the bottom of the ocean. \nThey kept the recovered cocoons in the swimming pool of a house they rented in a small Florida\ntown. Their mission is hampered by a number of old people from an elderly home nearby,\nwho have been secretly using the pool and discovering the unusual power of these cocoons.\n__________________\nInfo hash:4E656141EA5537E174A3CCA4E3DBAD7F4B415CFC\nTracker announce:\nTracker announce: http://open.tracker.thepiratebay.se:80/announce\nTracker Scrape:\n\n__________________\nContents of download:\n\nCocoon-[1985][DvDrip]-Demonuk[NIKONRG].avi (700MB)\nCocoon.info.txt (1.27Kb)\nTorrent downloaded from(47bytes)\n___________________________________________________________________\n For Detailed Information on New Releases and Popular Requests Goto\n&gt; http://www.nikonxp.com","torrent":{"xt":"urn:btih:4e656141ea5537e174a3cca4e3dbad7f4b415cfc","amp;dn":"COCOON-%5B1985%5D%5BDvDrip%5D-Demonuk%5BNIKONRG%5D","amp;tr":["udp%3A%2F%2Ftracker.openbittorrent.com%3A80","udp%3A%2F%2Fopen.demonii.com%3A1337","udp%3A%2F%2Ftracker.coppersurfer.tk%3A6969","udp%3A%2F%2Fexodus.desync.com%3A6969"],"infoHash":"4e656141ea5537e174a3cca4e3dbad7f4b415cfc","infoHashBuffer":{"type":"Buffer","data":[78,101,97,65,234,85,55,225,116,163,204,164,227,219,173,127,75,65,92,252]},"announce":[],"urlList":[]}}